<?xml version="1.0" encoding="UTF-8"?><svg xmlns="http://www.w3.org/2000/svg" viewBox="0 0 79.93 62.36"><g id="a"/><g id="b"><g id="c"><path fill="currentColor" d="M1.06,44.36l.63,2.61,1.3,.34v.87l-1.21,.53,1.83,1.5,.53,2.27,.34,.43h.97l.97,1.3-.1,1.79,3.19,1.79,3.28,.39,4.05,.14,2.17,1.06h3.09l1.59-.97,2.94,.1,2.65-.1,1.74-.87c.39-1.93-1.21-3.33-1.83-4.97,.43,.82,2.56,1.01,3.57,2.46,.24,1.06-.48,1.69,.29,2.61l1.69,.34,1.01,1.5-1.21,2.03,.48,.53,2.37,.1,.39,.24h1.16l.77-.34,2.8-.1h.05l-.43-1.26-.87-1.79-.14-.24,.34-.92h.96l.72,.92h3.43l2.65-.1,1.26-1.06,2.41-.29,2.12,1.54,1.69,.1,2.22-1.11,1.11-.53,1.83-.48,2.46,.34,1.93,1.25,1.16,.43,1.64-2.03v-.24l2.12-1.69,1.5,.1,1.16-1.88h1.59l1.98-.72-.1-1.25,.68-1.35,1.93-1.93-1.64-4.44,.24-.63-1.74-3.28-1.4-1.45-.1-1.5-.92-1.69,1.11-.58-2.61-2.17,1.06-2.85-.92-.97,.63-2.12-1.16-1.3-.19-.19,.58-3.28-.92-1.64-2.12-.48-.34-.14-2.8-1.11-.97-1.45-2.08-1.21-2.08-.1-.87-1.69,.58-2.03-.58-.05-1.25-2.61-1.88-.97-.24-3.19-1.69-1.45-2.8-.43-2.8-.43-2.46-1.35-5.74,1.64-4.34-2.61-4.63,.63-2.27,1.5-2.65,.43-1.01,1.54h-2.66l-2.12,.77-1.93-1.16-.29,1.21-1.45,1.74-1.01,1.54,.24,1.35-1.11,.63-1.45,2.7-.34,1.21-.19,2.46,.72,.87-2.27,1.3-.87-.77-1.4,2.37-1.16,.24-1.5,1.59-1.06,1.98-1.3-1.21-.53,1.3-.34,1.21-1.21,1.45-.97,.43-1.06-.43,.1,1.54,.97,1.3v1.5l-.72,1.59-1.06,2.7-.87,1.64-.1,2.65,.53,1.35,.53,3.19ZM69.12,27.66c3.38,12.07,.48,8.54-5.02,18.78-.1-.39,.97-2.65,.82-2.61,1.83-3.38,4.05-7.48,4.2-16.17Zm-6.18,3.81c-.1-.34-.14-1.01-.29-1.01,2.65-4.44,1.83-6.71-.1-12.45,2.65,5.41,6.32,3.09,.39,13.47Zm-.68,2.32c-1.45,13.08,1.01,12.26-2.03,17.38-2.03,2.61-3.23,1.74-7.19,3.91-.05-4.87,6.23-5.21,9.22-21.29Zm-11.92,17.96c-.72-2.17,5.89-7.82,.43-8.98-.82-4.92,4.83-7.43,4.15-20.08,3.81,6.81,4.92,20.85-4.59,29.06Zm.29-42.23c3.91,7.05,1.54,8.59,1.83,12.94-1.98,7.53-3.62,.43-3.91-1.54-.1-4.92,3.38-1.83,2.08-11.39Zm-3.81,44.99c-2.17,2.99-2.27,.19-1.4-1.25,1.01-1.59,.92-1.26,1.79-4.68-.29,4.59,.92,3.62-.39,5.94Zm-.83-18.39c.1-.44,.11-.84,.37-1.11,.48,.83,.53,4.67,.41,5.82-.31,2.95-1.44,4.46-2.51,6.86-.32,.71-.48,1.63-.88,2.23-3.7,5.55-4.39,1.76-3.7-2.89,.67-4.48,3.44-3,5.21-7.3,.48-1.15,.82-2.4,1.09-3.61Zm-3.8-8.05c.43-.74,1.21-2.32,1.49-3.04,.05,1.2-.35,2.77-.39,4.1-.05,1.52,.2,2.95,.13,4.48-.07,1.41-.7,2.45-1.41,3.22-.33,.36-1.97,2.06-2.89,1.27-.8-.68,.19-2.78,.36-3.57,1.06-4.77,.42-2.53,2.72-6.46Zm-3.68-22.22c3.81,6.18,1.83,18.44-.39,22.01,.68-6.52-2.03-5.6-1.74-7.38-.48-5.89,4.97-6.56,2.12-14.63Zm-4.39,36.87c1.25-1.06,1.18-4.19,1.68-5.1,.33,.18,.28,.38,.36,.8,.77,3.9,.85,6.07-.8,9.79l-1.28,2.81c-.66-.18-2.08-3.97-1.11-7.15,.29-.95,.49-.59,1.14-1.14ZM30.7,2.99c.29,3.91,1.06,4.1,1.5,5.79,.63,2.12-3.28,6.08-2.65,1.5-.58-3.38,.82-2.85,1.16-7.29Zm-1.51,23.64c.9-.17,1.96,1.31,2.23,1.84,.24,.46,.3,1.1,.49,1.58,.2,.51,.4,.92,.63,1.44,1.17,2.7-.1,6.29-.62,6.56-.24-.47-.27-2.4-.71-3.39-.62-1.39-.98-1.28-2.09-2.04-2.05-1.41-1.02-5.79,.08-5.99Zm-4.86-14.23c.39,5.07,.68,5.45,2.08,6.23,.77,2.65,.34,4.97-1.45,7.72-.82-3.67-3.52-5.89-.63-13.95Zm-3.28,11.92c-.05,10.38,4.92,15.69,6.23,18,.63,3.33,.92,4.63-1.06,7.92-.05-4.92-7-5.99-5.16-25.92Zm2.41,32.77c-1.4-1.54-1.45-1.16-4.2-1.98-3.57-.82-2.94-7.05-3.57-19.79,.92,12.26,9.46,17.33,7.77,21.77Zm-7.14-37.5c-1.93,5.7-3.28,7.53-1.98,13.08-.05-.05-.53,1.06-.68,1.83-4.05-6.81-1.21-8.69,2.65-14.91Zm-7.39,9.36c.19,6.71,2.85,13.03,5.65,19.02-2.51-3.67-6.08-6.37-7.67-11.01,.29-2.7,.63-5.5,2.03-8.01Z"/></g></g></svg>